<?xml version="1.0" encoding="UTF-8" standalone="no"?>
<!-- Generator: Adobe Illustrator 25.2.3, SVG Export Plug-In . SVG Version: 6.00 Build 0)  -->

<svg
   xmlns:dc="http://purl.org/dc/elements/1.1/"
   xmlns:cc="http://creativecommons.org/ns#"
   xmlns:rdf="http://www.w3.org/1999/02/22-rdf-syntax-ns#"
   xmlns:svg="http://www.w3.org/2000/svg"
   xmlns="http://www.w3.org/2000/svg"
   xmlns:sodipodi="http://sodipodi.sourceforge.net/DTD/sodipodi-0.dtd"
   xmlns:inkscape="http://www.inkscape.org/namespaces/inkscape"
   version="1.1"
   id="Layer_1"
   x="0px"
   y="0px"
   viewBox="0 0 1595.7 348.98"
   xml:space="preserve"
   sodipodi:docname="aiib-logo.svg"
   width="1595.7"
   height="348.98001"
   inkscape:version="0.92.4 (5da689c313, 2019-01-14)"><metadata
   id="metadata975"><rdf:RDF><cc:Work
       rdf:about=""><dc:format>image/svg+xml</dc:format><dc:type
         rdf:resource="http://purl.org/dc/dcmitype/StillImage" /></cc:Work></rdf:RDF></metadata><defs
   id="defs973" /><sodipodi:namedview
   pagecolor="#ffffff"
   bordercolor="#666666"
   borderopacity="1"
   objecttolerance="10"
   gridtolerance="10"
   guidetolerance="10"
   inkscape:pageopacity="0"
   inkscape:pageshadow="2"
   inkscape:window-width="2560"
   inkscape:window-height="1360"
   id="namedview971"
   showgrid="false"
   inkscape:zoom="1.0247577"
   inkscape:cx="804.38499"
   inkscape:cy="174.92499"
   inkscape:window-x="-11"
   inkscape:window-y="-11"
   inkscape:window-maximized="1"
   inkscape:current-layer="Layer_1" />
<style
   type="text/css"
   id="style896">
	.st0{fill:#8E1A1F;}
</style>
<g
   id="g968"
   transform="translate(-168.04,-171.49)">
	<g
   id="g964">
		<path
   class="st0"
   d="m 740.33,271.37 25.96,61.49 c 0.27,0.72 -0.27,1.27 -0.99,1.27 h -9.59 c -0.73,0 -0.99,-0.54 -1.27,-1.27 l -3.8,-9.23 h -27.22 l -3.71,9.23 c -0.27,0.72 -0.63,1.27 -1.36,1.27 h -9.68 c -0.72,0 -1.08,-0.54 -0.81,-1.27 l 25.77,-61.49 c 0.27,-0.72 0.54,-1.27 1.09,-1.27 h 4.34 c 0.64,0.01 1.01,0.55 1.27,1.27 z m 5.88,41.87 -8.67,-20.89 -0.54,-1.44 -0.63,1.44 -8.5,20.89 z"
   id="path898"
   inkscape:connector-curvature="0"
   style="fill:#8e1a1f" />
		<path
   class="st0"
   d="m 770.56,326.45 c -0.46,-0.54 -0.46,-1.27 0,-1.72 l 5.97,-6.06 c 0.45,-0.46 1.08,-0.46 1.62,0 3.35,3.34 9.86,5.79 15.29,5.79 7.14,0 12.66,-3.71 12.66,-8.59 0,-4.16 -2.98,-6.15 -13.2,-8.68 -16.02,-3.7 -22.61,-8.77 -22.61,-17.54 0,-11.58 9.59,-19.54 23.61,-19.54 8.5,0 16.45,2.71 22.51,7.69 0.54,0.45 0.64,1.27 0.1,1.8 l -6.06,6.16 c -0.45,0.45 -0.99,0.54 -1.54,0.18 -4.97,-3.7 -9.68,-5.33 -15.19,-5.33 -6.97,0 -11.58,3.07 -11.58,7.78 0,4.25 3.53,6.51 13.29,8.86 16.46,3.71 22.52,8.5 22.52,18 0,11.94 -9.68,19.62 -24.51,19.62 -9.5,-0.01 -17.72,-3.08 -22.88,-8.42 z"
   id="path900"
   inkscape:connector-curvature="0"
   style="fill:#8e1a1f" />
		<path
   class="st0"
   d="M 827.11,332.87 V 272.1 c 0,-0.63 0.54,-1.27 1.27,-1.27 h 9.4 c 0.63,0 1.09,0.63 1.09,1.27 v 60.77 c 0,0.63 -0.46,1.27 -1.09,1.27 h -9.4 c -0.73,-0.01 -1.27,-0.64 -1.27,-1.27 z"
   id="path902"
   inkscape:connector-curvature="0"
   style="fill:#8e1a1f" />
		<path
   class="st0"
   d="m 881.47,271.37 25.96,61.49 c 0.27,0.72 -0.27,1.27 -0.99,1.27 h -9.59 c -0.72,0 -0.99,-0.54 -1.27,-1.27 l -3.8,-9.23 h -27.22 l -3.71,9.23 c -0.27,0.72 -0.63,1.27 -1.35,1.27 h -9.68 c -0.72,0 -1.08,-0.54 -0.82,-1.27 l 25.78,-61.49 c 0.27,-0.72 0.54,-1.27 1.08,-1.27 h 4.34 c 0.64,0.01 1,0.55 1.27,1.27 z m 5.88,41.87 -8.68,-20.89 -0.54,-1.44 -0.63,1.44 -8.5,20.89 z"
   id="path904"
   inkscape:connector-curvature="0"
   style="fill:#8e1a1f" />
		<path
   class="st0"
   d="m 968.13,272.1 v 60.86 c 0,0.63 -0.54,1.18 -1.27,1.18 h -7.78 c -0.72,0 -1.54,-0.54 -1.99,-1.18 l -30.21,-40.88 v 40.88 c 0,0.63 -0.46,1.18 -1.09,1.18 h -9.4 c -0.73,0 -1.27,-0.54 -1.27,-1.18 V 272.1 c 0,-0.63 0.63,-1.27 1.27,-1.27 h 8.23 c 0.72,0 1.54,0.63 1.99,1.36 l 29.76,40.15 V 272.1 c 0,-0.63 0.45,-1.27 1.17,-1.27 h 9.31 c 0.74,0 1.28,0.63 1.28,1.27 z"
   id="path906"
   inkscape:connector-curvature="0"
   style="fill:#8e1a1f" />
		<path
   class="st0"
   d="M 1001.54,332.87 V 272.1 c 0,-0.63 0.54,-1.27 1.27,-1.27 h 9.4 c 0.63,0 1.08,0.63 1.08,1.27 v 60.77 c 0,0.63 -0.45,1.27 -1.08,1.27 h -9.4 c -0.73,-0.01 -1.27,-0.64 -1.27,-1.27 z"
   id="path908"
   inkscape:connector-curvature="0"
   style="fill:#8e1a1f" />
		<path
   class="st0"
   d="m 1078.24,272.1 v 60.86 c 0,0.63 -0.54,1.18 -1.27,1.18 h -7.78 c -0.72,0 -1.54,-0.54 -1.99,-1.18 L 1037,292.08 v 40.88 c 0,0.63 -0.46,1.18 -1.09,1.18 h -9.4 c -0.73,0 -1.27,-0.54 -1.27,-1.18 V 272.1 c 0,-0.63 0.63,-1.27 1.27,-1.27 h 8.23 c 0.72,0 1.54,0.63 1.99,1.36 l 29.76,40.15 V 272.1 c 0,-0.63 0.45,-1.27 1.17,-1.27 h 9.31 c 0.72,0 1.27,0.63 1.27,1.27 z"
   id="path910"
   inkscape:connector-curvature="0"
   style="fill:#8e1a1f" />
		<path
   class="st0"
   d="m 1129.72,272.1 v 7.96 c 0,0.72 -0.54,1.27 -1.27,1.27 h -27.49 v 17.9 h 19.35 c 0.72,0 1.36,0.54 1.36,1.27 v 8.05 c 0,0.63 -0.63,1.18 -1.36,1.18 h -19.35 v 23.15 c 0,0.63 -0.46,1.27 -1.09,1.27 h -9.4 c -0.73,0 -1.27,-0.63 -1.27,-1.27 V 272.1 c 0,-0.63 0.63,-1.27 1.35,-1.27 h 37.89 c 0.74,0 1.28,0.63 1.28,1.27 z"
   id="path912"
   inkscape:connector-curvature="0"
   style="fill:#8e1a1f" />
		<path
   class="st0"
   d="m 1185.99,334.13 h -9.49 c -0.72,0 -1.35,-0.54 -1.72,-1.27 l -10.85,-20.17 h -11.85 v 20.17 c 0,0.72 -0.45,1.27 -1.17,1.27 h -9.31 c -0.73,0 -1.27,-0.54 -1.27,-1.27 V 272.1 c 0,-0.63 0.54,-1.27 1.27,-1.27 h 28.48 c 8.78,0.09 16.46,7.87 16.46,20.8 0,10.76 -4.97,17.72 -11.21,19.62 l 11.58,21.52 c 0.34,0.64 -0.2,1.36 -0.92,1.36 z m -33.91,-31.92 h 13.75 c 5.52,0 8.86,-3.44 8.86,-10.49 0,-7.05 -3.34,-10.4 -8.5,-10.4 h -14.11 z"
   id="path914"
   inkscape:connector-curvature="0"
   style="fill:#8e1a1f" />
		<path
   class="st0"
   d="m 1226.53,271.37 25.96,61.49 c 0.27,0.72 -0.27,1.27 -0.99,1.27 h -9.59 c -0.72,0 -0.99,-0.54 -1.27,-1.27 l -3.8,-9.23 h -27.22 l -3.7,9.23 c -0.27,0.72 -0.63,1.27 -1.35,1.27 h -9.68 c -0.72,0 -1.09,-0.54 -0.82,-1.27 l 25.78,-61.49 c 0.27,-0.72 0.54,-1.27 1.08,-1.27 h 4.34 c 0.62,0.01 0.98,0.55 1.26,1.27 z m 5.88,41.87 -8.69,-20.89 -0.54,-1.44 -0.63,1.44 -8.5,20.89 z"
   id="path916"
   inkscape:connector-curvature="0"
   style="fill:#8e1a1f" />
		<path
   class="st0"
   d="m 1258.12,326.45 c -0.46,-0.54 -0.46,-1.27 0,-1.72 l 5.96,-6.06 c 0.45,-0.46 1.09,-0.46 1.63,0 3.34,3.34 9.85,5.79 15.29,5.79 7.14,0 12.66,-3.71 12.66,-8.59 0,-4.16 -2.99,-6.15 -13.2,-8.68 -16.01,-3.7 -22.61,-8.77 -22.61,-17.54 0,-11.58 9.59,-19.54 23.6,-19.54 8.5,0 16.46,2.71 22.52,7.69 0.54,0.45 0.63,1.27 0.09,1.8 l -6.06,6.16 c -0.45,0.45 -0.99,0.54 -1.54,0.18 -4.97,-3.7 -9.67,-5.33 -15.18,-5.33 -6.97,0 -11.58,3.07 -11.58,7.78 0,4.25 3.53,6.51 13.29,8.86 16.46,3.71 22.52,8.5 22.52,18 0,11.94 -9.68,19.62 -24.51,19.62 -9.5,-0.01 -17.73,-3.08 -22.88,-8.42 z"
   id="path918"
   inkscape:connector-curvature="0"
   style="fill:#8e1a1f" />
		<path
   class="st0"
   d="m 1359.16,272.18 v 7.87 c 0,0.72 -0.54,1.27 -1.18,1.27 h -16.91 v 51.55 c 0,0.63 -0.64,1.27 -1.27,1.27 h -9.31 c -0.72,0 -1.18,-0.63 -1.18,-1.27 v -51.55 h -16.91 c -0.73,0 -1.36,-0.54 -1.36,-1.27 v -7.87 c 0,-0.72 0.63,-1.36 1.36,-1.36 h 45.57 c 0.64,0.01 1.19,0.64 1.19,1.36 z"
   id="path920"
   inkscape:connector-curvature="0"
   style="fill:#8e1a1f" />
		<path
   class="st0"
   d="m 1413.62,334.13 h -9.49 c -0.72,0 -1.35,-0.54 -1.72,-1.27 l -10.85,-20.17 h -11.85 v 20.17 c 0,0.72 -0.45,1.27 -1.17,1.27 h -9.31 c -0.73,0 -1.27,-0.54 -1.27,-1.27 V 272.1 c 0,-0.63 0.54,-1.27 1.27,-1.27 h 28.48 c 8.78,0.09 16.46,7.87 16.46,20.8 0,10.76 -4.97,17.72 -11.21,19.62 l 11.58,21.52 c 0.34,0.64 -0.2,1.36 -0.92,1.36 z m -33.91,-31.92 h 13.75 c 5.52,0 8.86,-3.44 8.86,-10.49 0,-7.05 -3.34,-10.4 -8.5,-10.4 h -14.11 z"
   id="path922"
   inkscape:connector-curvature="0"
   style="fill:#8e1a1f" />
		<path
   class="st0"
   d="m 1475.5,272.18 v 36.18 c 0,13.38 -6.78,26.49 -25.96,26.49 -19.08,0 -25.86,-13.11 -25.86,-26.49 v -36.18 c 0,-0.72 0.63,-1.36 1.27,-1.36 h 9.31 c 0.63,0 1.17,0.63 1.17,1.36 v 34.45 c 0,10.95 4.52,17.73 14.11,17.73 9.59,0 14.2,-6.78 14.2,-17.73 v -34.45 c 0,-0.72 0.54,-1.36 1.27,-1.36 h 9.22 c 0.72,0.01 1.27,0.64 1.27,1.36 z"
   id="path924"
   inkscape:connector-curvature="0"
   style="fill:#8e1a1f" />
		<path
   class="st0"
   d="m 1484.29,302.49 c 0,-17.82 13.84,-32.38 31.83,-32.38 9.31,0 18,3.7 23.7,10.76 0.54,0.63 0.54,1.36 0.09,1.81 l -6.15,6.15 c -0.54,0.54 -1.45,0.45 -1.9,-0.18 -3.08,-4.34 -8.5,-7.96 -15.74,-7.96 -11.84,0 -20.07,9.95 -20.07,21.8 0,11.94 8.23,21.79 20.07,21.79 7.42,0 12.93,-3.34 16.64,-8.41 0.36,-0.45 1.18,-0.72 1.9,-0.09 l 5.79,5.6 c 0.63,0.54 0.45,1.36 0,1.9 -5.96,7.42 -14.65,11.58 -24.33,11.58 -17.99,0 -31.83,-14.56 -31.83,-32.37 z"
   id="path926"
   inkscape:connector-curvature="0"
   style="fill:#8e1a1f" />
		<path
   class="st0"
   d="m 1595.28,272.18 v 7.87 c 0,0.72 -0.54,1.27 -1.17,1.27 h -16.91 v 51.55 c 0,0.63 -0.63,1.27 -1.27,1.27 h -9.31 c -0.72,0 -1.17,-0.63 -1.17,-1.27 v -51.55 h -16.91 c -0.72,0 -1.36,-0.54 -1.36,-1.27 v -7.87 c 0,-0.72 0.64,-1.36 1.36,-1.36 h 45.58 c 0.62,0.01 1.16,0.64 1.16,1.36 z"
   id="path928"
   inkscape:connector-curvature="0"
   style="fill:#8e1a1f" />
		<path
   class="st0"
   d="m 1654.73,272.18 v 36.18 c 0,13.38 -6.78,26.49 -25.96,26.49 -19.08,0 -25.86,-13.11 -25.86,-26.49 v -36.18 c 0,-0.72 0.63,-1.36 1.27,-1.36 h 9.31 c 0.63,0 1.17,0.63 1.17,1.36 v 34.45 c 0,10.95 4.52,17.73 14.11,17.73 9.59,0 14.2,-6.78 14.2,-17.73 v -34.45 c 0,-0.72 0.54,-1.36 1.27,-1.36 h 9.23 c 0.71,0.01 1.26,0.64 1.26,1.36 z"
   id="path930"
   inkscape:connector-curvature="0"
   style="fill:#8e1a1f" />
		<path
   class="st0"
   d="m 1711.54,334.13 h -9.5 c -0.72,0 -1.35,-0.54 -1.72,-1.27 l -10.85,-20.17 h -11.85 v 20.17 c 0,0.72 -0.46,1.27 -1.18,1.27 h -9.31 c -0.72,0 -1.27,-0.54 -1.27,-1.27 V 272.1 c 0,-0.63 0.54,-1.27 1.27,-1.27 h 28.49 c 8.77,0.09 16.46,7.87 16.46,20.8 0,10.76 -4.97,17.72 -11.21,19.62 l 11.58,21.52 c 0.36,0.64 -0.18,1.36 -0.91,1.36 z m -33.91,-31.92 h 13.75 c 5.52,0 8.87,-3.44 8.87,-10.49 0,-7.05 -3.35,-10.4 -8.5,-10.4 h -14.11 v 20.89 z"
   id="path932"
   inkscape:connector-curvature="0"
   style="fill:#8e1a1f" />
		<path
   class="st0"
   d="m 1763.74,324.91 v 7.96 c 0,0.63 -0.63,1.27 -1.27,1.27 h -38.34 c -0.72,0 -1.35,-0.63 -1.35,-1.27 V 272.1 c 0,-0.63 0.63,-1.27 1.35,-1.27 h 38.44 c 0.63,0 1.17,0.63 1.17,1.27 v 7.96 c 0,0.72 -0.54,1.27 -1.17,1.27 h -28.04 v 15.91 h 18.9 c 0.64,0 1.27,0.54 1.27,1.18 v 8.05 c 0,0.72 -0.63,1.27 -1.27,1.27 h -18.9 v 15.91 h 27.94 c 0.65,-0.01 1.27,0.54 1.27,1.26 z"
   id="path934"
   inkscape:connector-curvature="0"
   style="fill:#8e1a1f" />
		<path
   class="st0"
   d="m 711.03,420.03 v -60.77 c 0,-0.63 0.54,-1.27 1.27,-1.27 h 9.4 c 0.63,0 1.08,0.63 1.08,1.27 v 60.77 c 0,0.63 -0.45,1.27 -1.08,1.27 h -9.4 c -0.72,-0.01 -1.27,-0.64 -1.27,-1.27 z"
   id="path936"
   inkscape:connector-curvature="0"
   style="fill:#8e1a1f" />
		<path
   class="st0"
   d="m 786.83,359.25 v 60.86 c 0,0.63 -0.54,1.18 -1.27,1.18 h -7.78 c -0.72,0 -1.53,-0.54 -1.99,-1.18 l -30.21,-40.88 v 40.88 c 0,0.63 -0.45,1.18 -1.08,1.18 h -9.4 c -0.72,0 -1.27,-0.54 -1.27,-1.18 v -60.86 c 0,-0.63 0.63,-1.27 1.27,-1.27 h 8.23 c 0.73,0 1.54,0.63 2,1.36 l 29.75,40.15 v -40.24 c 0,-0.63 0.45,-1.27 1.18,-1.27 h 9.31 c 0.71,0.01 1.26,0.64 1.26,1.27 z"
   id="path938"
   inkscape:connector-curvature="0"
   style="fill:#8e1a1f" />
		<path
   class="st0"
   d="M 852.59,359.34 827,420.02 c -0.27,0.72 -0.63,1.27 -1.36,1.27 h -4.15 c -0.63,0 -0.99,-0.54 -1.36,-1.27 l -25.59,-60.68 c -0.27,-0.72 0.27,-1.36 0.99,-1.36 h 9.59 c 0.72,0 1.08,0.63 1.35,1.36 l 17.09,41.88 17,-41.88 c 0.36,-0.81 0.72,-1.36 1.44,-1.36 h 9.59 c 0.73,0.01 1.37,0.55 1,1.36 z"
   id="path940"
   inkscape:connector-curvature="0"
   style="fill:#8e1a1f" />
		<path
   class="st0"
   d="m 901.37,412.07 v 7.96 c 0,0.63 -0.63,1.27 -1.27,1.27 h -38.34 c -0.72,0 -1.36,-0.63 -1.36,-1.27 v -60.77 c 0,-0.63 0.64,-1.27 1.36,-1.27 h 38.43 c 0.63,0 1.18,0.63 1.18,1.27 v 7.96 c 0,0.72 -0.54,1.27 -1.18,1.27 h -28.03 v 15.91 h 18.9 c 0.63,0 1.27,0.54 1.27,1.18 v 8.05 c 0,0.72 -0.63,1.27 -1.27,1.27 h -18.9 v 15.91 h 27.94 c 0.64,-0.01 1.27,0.53 1.27,1.26 z"
   id="path942"
   inkscape:connector-curvature="0"
   style="fill:#8e1a1f" />
		<path
   class="st0"
   d="m 910.25,413.6 c -0.45,-0.54 -0.45,-1.27 0,-1.72 l 5.96,-6.06 c 0.46,-0.46 1.09,-0.46 1.63,0 3.34,3.34 9.85,5.79 15.28,5.79 7.14,0 12.67,-3.71 12.67,-8.59 0,-4.16 -2.99,-6.15 -13.21,-8.68 -16,-3.7 -22.61,-8.77 -22.61,-17.54 0,-11.58 9.59,-19.54 23.6,-19.54 8.5,0 16.46,2.71 22.52,7.69 0.54,0.45 0.63,1.27 0.09,1.8 l -6.06,6.16 c -0.46,0.45 -0.99,0.54 -1.54,0.18 -4.98,-3.7 -9.68,-5.33 -15.19,-5.33 -6.97,0 -11.58,3.07 -11.58,7.78 0,4.25 3.53,6.51 13.29,8.86 16.46,3.71 22.52,8.5 22.52,18 0,11.94 -9.68,19.62 -24.51,19.62 -9.47,-0.01 -17.7,-3.08 -22.86,-8.42 z"
   id="path944"
   inkscape:connector-curvature="0"
   style="fill:#8e1a1f" />
		<path
   class="st0"
   d="m 1012.19,359.34 v 7.87 c 0,0.72 -0.54,1.27 -1.18,1.27 H 994.1 v 51.55 c 0,0.63 -0.63,1.27 -1.27,1.27 h -9.31 c -0.72,0 -1.18,-0.63 -1.18,-1.27 v -51.55 h -16.91 c -0.73,0 -1.36,-0.54 -1.36,-1.27 v -7.87 c 0,-0.72 0.63,-1.36 1.36,-1.36 H 1011 c 0.66,0.01 1.19,0.64 1.19,1.36 z"
   id="path946"
   inkscape:connector-curvature="0"
   style="fill:#8e1a1f" />
		<path
   class="st0"
   d="m 1075.53,359.34 c 0.35,-0.72 1.17,-1.36 1.89,-1.36 h 8.68 c 0.82,0 1.27,0.63 1.27,1.27 v 60.86 c 0,0.63 -0.45,1.18 -1.27,1.18 h -9.23 c -0.72,0 -1.27,-0.54 -1.27,-1.18 v -37.44 l -18.53,37.35 c -0.54,0.82 -1.17,1.27 -1.81,1.27 h -1.17 c -0.64,0 -1.27,-0.45 -1.81,-1.27 l -18.63,-37.35 v 37.44 c 0,0.63 -0.54,1.18 -1.27,1.18 h -9.22 c -0.82,0 -1.27,-0.54 -1.27,-1.18 v -60.86 c 0,-0.63 0.54,-1.27 1.35,-1.27 h 8.77 c 0.63,0 1.35,0.63 1.72,1.36 l 20.8,42.51 z"
   id="path948"
   inkscape:connector-curvature="0"
   style="fill:#8e1a1f" />
		<path
   class="st0"
   d="m 1139.32,412.07 v 7.96 c 0,0.63 -0.64,1.27 -1.27,1.27 h -38.35 c -0.72,0 -1.36,-0.63 -1.36,-1.27 v -60.77 c 0,-0.63 0.63,-1.27 1.36,-1.27 h 38.44 c 0.63,0 1.18,0.63 1.18,1.27 v 7.96 c 0,0.72 -0.54,1.27 -1.18,1.27 h -28.03 v 15.91 h 18.9 c 0.63,0 1.27,0.54 1.27,1.18 v 8.05 c 0,0.72 -0.64,1.27 -1.27,1.27 h -18.9 v 15.91 h 27.94 c 0.63,-0.01 1.27,0.53 1.27,1.26 z"
   id="path950"
   inkscape:connector-curvature="0"
   style="fill:#8e1a1f" />
		<path
   class="st0"
   d="m 1203.72,359.25 v 60.86 c 0,0.63 -0.54,1.18 -1.27,1.18 h -7.78 c -0.72,0 -1.53,-0.54 -1.99,-1.18 l -30.21,-40.88 v 40.88 c 0,0.63 -0.45,1.18 -1.08,1.18 h -9.4 c -0.72,0 -1.27,-0.54 -1.27,-1.18 v -60.86 c 0,-0.63 0.63,-1.27 1.27,-1.27 h 8.23 c 0.73,0 1.54,0.63 2,1.36 l 29.75,40.15 v -40.24 c 0,-0.63 0.45,-1.27 1.18,-1.27 h 9.31 c 0.72,0.01 1.26,0.64 1.26,1.27 z"
   id="path952"
   inkscape:connector-curvature="0"
   style="fill:#8e1a1f" />
		<path
   class="st0"
   d="m 1262.35,359.34 v 7.87 c 0,0.72 -0.54,1.27 -1.18,1.27 h -16.91 v 51.55 c 0,0.63 -0.63,1.27 -1.27,1.27 h -9.31 c -0.72,0 -1.18,-0.63 -1.18,-1.27 v -51.55 h -16.91 c -0.73,0 -1.35,-0.54 -1.35,-1.27 v -7.87 c 0,-0.72 0.63,-1.36 1.35,-1.36 h 45.57 c 0.65,0.01 1.19,0.64 1.19,1.36 z"
   id="path954"
   inkscape:connector-curvature="0"
   style="fill:#8e1a1f" />
		<path
   class="st0"
   d="m 1321.43,421.29 h -26.94 c -0.73,0 -1.35,-0.63 -1.35,-1.27 v -60.77 c 0,-0.63 0.63,-1.27 1.35,-1.27 h 24.96 c 9.14,0.09 16.28,6.6 16.28,17.55 0,6.24 -2.26,10.85 -5.97,13.56 4.89,2.62 8.14,7.86 8.14,14.56 0,10.04 -6.78,17.55 -16.47,17.64 z m -16.54,-52.81 v 16.19 h 12.03 c 4.17,0 7.05,-1.99 7.05,-8.05 0,-6.33 -3.43,-8.14 -8.4,-8.14 z M 1318,410.8 c 4.61,0 8.05,-2.35 8.05,-8.23 0,-6.06 -3.53,-8.05 -7.23,-8.05 h -13.93 v 16.27 H 1318 Z"
   id="path956"
   inkscape:connector-curvature="0"
   style="fill:#8e1a1f" />
		<path
   class="st0"
   d="m 1374.9,358.53 25.96,61.49 c 0.27,0.72 -0.27,1.27 -0.99,1.27 h -9.59 c -0.72,0 -0.99,-0.54 -1.27,-1.27 l -3.8,-9.23 h -27.22 l -3.71,9.23 c -0.27,0.72 -0.63,1.27 -1.35,1.27 h -9.68 c -0.72,0 -1.08,-0.54 -0.82,-1.27 l 25.78,-61.49 c 0.27,-0.72 0.54,-1.27 1.08,-1.27 h 4.34 c 0.64,0.01 1,0.55 1.27,1.27 z m 5.88,41.87 -8.68,-20.89 -0.54,-1.44 -0.63,1.44 -8.5,20.89 z"
   id="path958"
   inkscape:connector-curvature="0"
   style="fill:#8e1a1f" />
		<path
   class="st0"
   d="m 1461.57,359.25 v 60.86 c 0,0.63 -0.54,1.18 -1.27,1.18 h -7.78 c -0.72,0 -1.54,-0.54 -1.99,-1.18 l -30.21,-40.88 v 40.88 c 0,0.63 -0.46,1.18 -1.09,1.18 h -9.4 c -0.73,0 -1.27,-0.54 -1.27,-1.18 v -60.86 c 0,-0.63 0.63,-1.27 1.27,-1.27 h 8.23 c 0.72,0 1.54,0.63 1.99,1.36 l 29.76,40.15 v -40.24 c 0,-0.63 0.45,-1.27 1.17,-1.27 h 9.31 c 0.73,0.01 1.28,0.64 1.28,1.27 z"
   id="path960"
   inkscape:connector-curvature="0"
   style="fill:#8e1a1f" />
		<path
   class="st0"
   d="m 1485.19,420.03 c 0,0.63 -0.45,1.27 -1.08,1.27 h -9.4 c -0.72,0 -1.27,-0.63 -1.27,-1.27 v -60.77 c 0,-0.63 0.54,-1.27 1.27,-1.27 h 9.4 c 0.63,0 1.08,0.63 1.08,1.27 v 26.86 l 23.88,-26.86 c 0.81,-0.91 1.8,-1.27 2.53,-1.27 h 10.04 c 0.91,0 1.35,1.18 0.81,1.81 l -26.41,29.84 26.41,29.84 c 0.54,0.63 0.27,1.81 -0.81,1.81 h -10.67 c -0.72,0 -1.81,-0.54 -2.44,-1.27 L 1485.2,393.7 v 26.33 z"
   id="path962"
   inkscape:connector-curvature="0"
   style="fill:#8e1a1f" />
	</g>
	<path
   class="st0"
   d="m 226.34,246.35 c 31.49,-45.2 83.74,-74.86 142.79,-74.86 59.06,0 111.31,29.66 142.8,74.86 h -50.26 c -24.28,-22.66 -56.81,-36.58 -92.54,-36.58 -35.73,0 -68.25,13.92 -92.54,36.58 z m 235.33,199.26 c -24.28,22.66 -56.81,36.58 -92.54,36.58 -35.73,0 -68.25,-13.92 -92.54,-36.58 h -50.26 c 31.48,45.2 83.74,74.86 142.79,74.86 59.06,0 111.3,-29.66 142.8,-74.86 z M 220.52,364.58 h 38.27 l -18.88,-58.94 z m 37.38,-93.17 52.87,149.78 h -33.86 l -9.86,-30.79 h -55.03 l -10.12,30.79 h -33.86 l 54.53,-149.78 z m 67.04,149.78 h 31.02 V 271.4 h -31.02 z m 57.69,0 h 31.03 V 271.4 H 382.63 Z M 550.69,287.36 C 543.09,277 530.17,271.67 511.96,271.4 h -72.24 v 149.8 h 67.34 c 7.59,0 14.63,-0.68 21.12,-2.04 6.49,-1.35 12.11,-3.86 16.88,-7.52 4.24,-3.19 7.77,-7.1 10.59,-11.78 4.44,-7.05 6.66,-15 6.66,-23.89 0,-8.6 -1.94,-15.91 -5.83,-21.93 -3.88,-6.03 -9.63,-10.44 -17.27,-13.22 5.03,-2.57 8.82,-5.42 11.4,-8.54 4.63,-5.55 6.92,-12.91 6.92,-22.05 0.01,-8.88 -2.27,-16.5 -6.84,-22.87 m -48.64,10.06 c 7.16,0 13.04,0.77 17.66,2.33 5.36,2.23 8.03,6.84 8.03,13.82 0,6.3 -2.03,10.69 -6.08,13.16 -4.04,2.47 -9.31,3.71 -15.8,3.71 h -36.32 v -33.02 z m 4.27,57.82 c 6.42,0.06 11.39,0.9 14.94,2.54 6.35,2.91 9.51,8.27 9.51,16.07 0,9.2 -3.27,15.44 -9.81,18.69 -3.61,1.76 -8.66,2.65 -15.14,2.65 h -36.28 v -39.94 h 36.78 z"
   id="path966"
   inkscape:connector-curvature="0"
   style="fill:#8e1a1f" />
</g>
</svg>